<svg viewBox="0 0 200 200" xmlns="http://www.w3.org/2000/svg">
  <defs>
    <linearGradient id="bgR1" x1="0" y1="0" x2="0" y2="1">
      <stop offset="0" stop-color="#FFA4C4"/>
      <stop offset="1" stop-color="#F06292"/>
    </linearGradient>
  </defs>
  <rect width="200" height="200" fill="url(#bgR1)"/>
  <rect x="50" y="50" width="100" height="88" rx="22" fill="#FFFFFF"/>
  <rect x="97" y="32" width="6" height="18" rx="2" fill="#FFFFFF"/>
  <circle cx="100" cy="30" r="6" fill="#FFEB3B"/>
  <rect x="40" y="82" width="14" height="24" rx="5" fill="#FFFFFF"/>
  <rect x="146" y="82" width="14" height="24" rx="5" fill="#FFFFFF"/>
  <rect x="62" y="66" width="76" height="56" rx="14" fill="#455A64"/>
  <rect x="62" y="78" width="34" height="34" rx="9" fill="#FFFFFF"/>
  <rect x="104" y="78" width="34" height="34" rx="9" fill="#FFFFFF"/>
  <rect x="94" y="88" width="12" height="14" rx="2" fill="#FFFFFF"/>
  <circle cx="79" cy="95" r="11" fill="#C2185B"/>
  <circle cx="79" cy="95" r="7" fill="#F48FB1"/>
  <circle cx="76" cy="92" r="2.5" fill="#FFFFFF"/>
  <circle cx="121" cy="96" r="11" fill="#E53935"/>
  <path d="M116 91 Q115 95 117 98" stroke="#FFFFFF" stroke-width="1.8" stroke-linecap="round" fill="none" opacity=".7"/>
  <path d="M121 84 Q125 80 129 82 Q127 86 121 85 Z" fill="#81C784"/>
  <rect x="120.5" y="82" width="1.5" height="3" rx=".7" fill="#5D4037"/>
  <path d="M84 128 Q100 136 116 128" stroke="#FFFFFF" stroke-width="3" stroke-linecap="round" fill="none"/>
</svg>
